<svg width="539" height="161" viewBox="0 0 539 161" fill="none" xmlns="http://www.w3.org/2000/svg">
<path d="M215.263 35.0215C215.079 35.0383 214.872 35.0767 214.622 35.1367C214.219 35.2334 213.988 35.3292 213.673 35.5296C213.273 35.787 213.008 36.0313 212.761 36.3749C212.447 36.8133 212.341 37.0486 212.197 37.6189L212.121 37.9159L212.068 45.8875C212.03 51.5727 212.02 53.9067 212.035 54.0258C212.062 54.2302 212.135 54.5599 212.203 54.7725C212.394 55.3705 212.831 55.97 213.352 56.3499C213.795 56.6738 214.104 56.8065 214.746 56.9551L214.983 57.0101L222.87 57.0631C228.421 57.1002 230.811 57.1105 230.944 57.0955C231.518 57.0335 232.073 56.8484 232.475 56.5831C232.877 56.3178 233.129 56.0833 233.379 55.7338C233.701 55.2836 233.882 54.8325 233.987 54.2184C234.014 54.052 234.023 53.1458 234.065 46.1279C234.117 37.4682 234.123 38.1445 233.999 37.6281C233.881 37.1356 233.708 36.7895 233.36 36.3373C233.187 36.1142 233.021 35.9565 232.764 35.7725C232.296 35.4346 231.989 35.3059 231.274 35.1489C231.139 35.1203 230.385 35.1118 223.229 35.0671C218.886 35.0392 215.301 35.0198 215.263 35.0215ZM230.945 35.4602C230.952 35.4742 228.341 35.4645 223.128 35.4334C217.914 35.4023 215.303 35.3807 215.311 35.3669C215.319 35.3531 217.946 35.3628 223.128 35.3937C228.31 35.4247 230.937 35.4463 230.945 35.4602ZM229.725 37.7553C229.901 37.7801 230.218 37.899 230.394 38.0072C230.643 38.1594 230.958 38.4766 231.092 38.7114C231.182 38.8666 231.29 39.129 231.33 39.2899C231.354 39.3832 231.351 40.4025 231.318 46.062C231.28 52.3639 231.276 52.7308 231.241 52.8515C231.14 53.2138 230.954 53.5221 230.676 53.7921C230.397 54.0621 230.124 54.2151 229.729 54.3258C229.608 54.3588 229.308 54.359 222.955 54.3211C216.565 54.2829 216.305 54.2794 216.18 54.2449C215.974 54.1842 215.731 54.0776 215.575 53.9795C215.403 53.8714 215.095 53.5701 214.981 53.4009C214.814 53.148 214.695 52.8419 214.665 52.5859C214.636 52.3419 214.711 39.5694 214.742 39.3336C214.775 39.078 214.912 38.7496 215.084 38.4988C215.162 38.3862 215.483 38.0669 215.597 37.9902C215.685 37.9293 215.987 37.7843 216.13 37.7336C216.196 37.7102 216.303 37.6851 216.369 37.6755C216.553 37.6509 229.534 37.7284 229.725 37.7553ZM212.487 38.1263C212.487 38.1362 212.483 38.1461 212.479 38.1461C212.473 38.1461 212.463 38.1361 212.457 38.1261C212.452 38.1142 212.456 38.1063 212.465 38.1064C212.477 38.1064 212.487 38.1144 212.487 38.1263ZM233.775 38.2951C233.775 38.3149 233.766 38.3327 233.755 38.3326C233.745 38.3326 233.735 38.3087 233.735 38.281C233.735 38.2532 233.743 38.2354 233.755 38.2434C233.767 38.2494 233.775 38.2733 233.775 38.2951ZM214.486 38.9116C214.486 38.9216 214.476 38.9314 214.464 38.9313C214.454 38.9313 214.451 38.9214 214.457 38.9115C214.463 38.8996 214.473 38.8917 214.479 38.8918C214.482 38.8918 214.486 38.8998 214.486 38.9116ZM231.724 39.4231C231.724 39.439 231.714 39.4468 231.704 39.4408C231.693 39.4328 231.689 39.4189 231.695 39.409C231.713 39.3814 231.725 39.3874 231.724 39.4231ZM231.637 52.6913C231.617 52.711 231.6 52.6811 231.618 52.6555C231.63 52.6337 231.634 52.6337 231.641 52.6556C231.645 52.6695 231.643 52.6853 231.637 52.6913ZM231.624 52.828C231.624 52.8439 231.616 52.8518 231.605 52.8457C231.595 52.8397 231.585 52.8258 231.585 52.8139C231.585 52.804 231.595 52.7961 231.605 52.7962C231.617 52.7962 231.625 52.8102 231.624 52.828ZM233.681 53.9568C233.681 53.9786 233.673 54.0023 233.661 54.0082C233.649 54.0161 233.641 53.9982 233.641 53.9704C233.642 53.9426 233.652 53.9189 233.662 53.919C233.673 53.919 233.681 53.9369 233.681 53.9568ZM212.393 53.8733C212.393 53.8951 212.385 53.9069 212.373 53.9009C212.363 53.8949 212.353 53.875 212.354 53.8592C212.354 53.8433 212.364 53.8315 212.374 53.8315C212.385 53.8316 212.393 53.8495 212.393 53.8733Z" fill="white"/>
<path d="M79.0272 81.384V89.448C79.0272 102.589 76.0832 112.701 70.1952 119.784C64.3925 126.781 55.7738 130.28 44.3392 130.28C32.9045 130.28 24.2432 126.781 18.3552 119.784C12.5525 112.701 9.65116 102.589 9.65116 89.448V81.384C9.65116 68.2427 12.5525 58.1734 18.3552 51.176C24.2432 44.1787 32.9045 40.68 44.3392 40.68C55.7738 40.68 64.3925 44.1787 70.1952 51.176C76.0832 58.1734 79.0272 68.2427 79.0272 81.384ZM62.6432 74.984C62.6432 67.4747 62.0032 61.5867 60.7232 57.32C59.4432 52.968 57.4378 49.8534 54.7072 47.976C52.0618 46.0987 48.6058 45.16 44.3392 45.16C40.1578 45.16 36.7018 46.0987 33.9712 47.976C31.2405 49.8534 29.2352 52.968 27.9552 57.32C26.6752 61.5867 26.0352 67.4747 26.0352 74.984V95.848C26.0352 103.272 26.6752 109.16 27.9552 113.512C29.2352 117.864 31.2405 121.021 33.9712 122.984C36.7018 124.861 40.1578 125.8 44.3392 125.8C48.6058 125.8 52.0618 124.861 54.7072 122.984C57.4378 121.021 59.4432 117.864 60.7232 113.512C62.0032 109.16 62.6432 103.272 62.6432 95.848V74.984ZM165.789 125.416V129H131.357V125.416L138.397 124.52C139.762 124.349 140.573 124.008 140.829 123.496C141.085 122.899 141.213 121.149 141.213 118.248V85.992C141.213 80.104 140.317 75.8374 138.525 73.192C136.818 70.4614 134.258 69.096 130.845 69.096C129.394 69.096 127.688 69.48 125.725 70.248C123.848 70.9307 121.928 72.2107 119.965 74.088C118.088 75.9654 116.424 78.7387 114.973 82.408V118.248C114.973 121.149 115.101 122.899 115.357 123.496C115.613 124.008 116.424 124.349 117.789 124.52L124.829 125.416V129H90.3972V125.416L97.4372 124.52C98.8025 124.349 99.6132 124.008 99.8692 123.496C100.125 122.899 100.253 121.149 100.253 118.248V74.856C100.253 71.9547 100.125 70.248 99.8692 69.736C99.6132 69.1387 98.8025 68.7547 97.4372 68.584L90.3972 67.688V64.104H114.205V75.368C116.68 71.016 119.837 67.8587 123.677 65.896C127.602 63.848 131.528 62.824 135.453 62.824C141.768 62.824 146.76 64.8294 150.429 68.84C154.098 72.8507 155.933 78.5254 155.933 85.864V118.248C155.933 121.149 156.061 122.899 156.317 123.496C156.573 124.008 157.384 124.349 158.749 124.52L165.789 125.416ZM169.251 37.864V34.28H193.827V118.248C193.827 121.149 193.955 122.899 194.211 123.496C194.467 124.008 195.278 124.349 196.643 124.52L203.683 125.416V129H169.251V125.416L176.291 124.52C177.656 124.349 178.467 124.008 178.723 123.496C178.979 122.899 179.107 121.149 179.107 118.248V45.032C179.107 42.1307 178.979 40.424 178.723 39.912C178.467 39.3147 177.656 38.9307 176.291 38.76L169.251 37.864ZM209.831 66.408V63.72H236.135V66.408L230.855 67.08C229.831 67.208 229.223 67.496 229.031 67.944C228.839 68.328 228.743 69.608 228.743 71.784V120.936C228.743 123.112 228.839 124.424 229.031 124.872C229.223 125.256 229.831 125.512 230.855 125.64L236.135 126.312V129H209.831V126.312L215.111 125.64C216.135 125.512 216.743 125.256 216.935 124.872C217.127 124.424 217.223 123.112 217.223 120.936V71.784C217.223 69.608 217.127 68.328 216.935 67.944C216.743 67.496 216.135 67.208 215.111 67.08L209.831 66.408ZM275.497 125.8C280.617 125.8 284.841 124.605 288.169 122.216C291.582 119.741 293.289 115.901 293.289 110.696C293.289 106.856 292.137 103.656 289.833 101.096C287.614 98.536 283.604 96.4027 277.801 94.696L265.897 91.112C259.924 89.32 255.316 86.248 252.073 81.896C248.916 77.4587 247.337 71.9547 247.337 65.384C247.337 61.032 248.318 56.9787 250.281 53.224C252.329 49.4694 255.401 46.44 259.497 44.136C263.678 41.832 268.926 40.68 275.241 40.68C282.153 40.68 287.742 41.96 292.009 44.52C296.276 46.9947 299.262 50.2374 300.969 54.248C302.676 58.2587 303.102 62.568 302.249 67.176L287.529 69.864C288.894 61.928 288.297 55.8267 285.737 51.56C283.262 47.2934 279.209 45.16 273.577 45.16C269.225 45.16 265.726 46.44 263.081 49C260.521 51.56 259.241 55.2294 259.241 60.008C259.241 63.9334 260.35 67.3894 262.569 70.376C264.873 73.3627 268.628 75.6667 273.833 77.288L285.737 80.872C292.222 82.7494 297.086 85.608 300.329 89.448C303.572 93.2027 305.193 98.4507 305.193 105.192C305.193 109.971 304.084 114.28 301.865 118.12C299.732 121.875 296.446 124.861 292.009 127.08C287.657 129.213 282.196 130.28 275.625 130.28C270.846 130.28 266.324 129.597 262.057 128.232C257.79 126.781 254.206 124.435 251.305 121.192C248.489 117.949 246.697 113.555 245.929 108.008L254.505 104.936C254.932 110.397 256.126 114.664 258.089 117.736C260.137 120.723 262.654 122.813 265.641 124.008C268.713 125.203 271.998 125.8 275.497 125.8ZM389.612 125.416V129H355.18V125.416L362.22 124.52C363.585 124.349 364.396 124.008 364.652 123.496C364.908 122.899 365.036 121.149 365.036 118.248V85.992C365.036 80.104 364.14 75.8374 362.348 73.192C360.641 70.4614 358.081 69.096 354.668 69.096C353.217 69.096 351.511 69.48 349.548 70.248C347.671 70.9307 345.751 72.2107 343.788 74.088C341.911 75.9654 340.247 78.7387 338.796 82.408V118.248C338.796 121.149 338.924 122.899 339.18 123.496C339.436 124.008 340.247 124.349 341.612 124.52L348.652 125.416V129H314.22V125.416L321.26 124.52C322.625 124.349 323.436 124.008 323.692 123.496C323.948 122.899 324.076 121.149 324.076 118.248V45.032C324.076 42.1307 323.948 40.424 323.692 39.912C323.436 39.3147 322.625 38.9307 321.26 38.76L314.22 37.864V34.28H338.796V74.088C341.271 70.1627 344.343 67.304 348.012 65.512C351.767 63.72 355.521 62.824 359.276 62.824C365.591 62.824 370.583 64.8294 374.252 68.84C377.921 72.8507 379.756 78.5254 379.756 85.864V118.248C379.756 121.149 379.884 122.899 380.14 123.496C380.396 124.008 381.207 124.349 382.572 124.52L389.612 125.416ZM456.327 95.208V97.768C456.327 107.581 453.767 115.475 448.647 121.448C443.612 127.336 436.402 130.28 427.015 130.28C417.628 130.28 410.375 127.336 405.255 121.448C400.22 115.475 397.703 107.581 397.703 97.768V95.208C397.703 85.3947 400.22 77.544 405.255 71.656C410.375 65.768 417.628 62.824 427.015 62.824C436.402 62.824 443.612 65.768 448.647 71.656C453.767 77.544 456.327 85.3947 456.327 95.208ZM440.583 92.648C440.583 83.5174 439.431 77.032 437.127 73.192C434.823 69.2667 431.452 67.304 427.015 67.304C422.663 67.304 419.292 69.2667 416.903 73.192C414.599 77.032 413.447 83.5174 413.447 92.648V100.328C413.447 109.373 414.599 115.901 416.903 119.912C419.292 123.837 422.663 125.8 427.015 125.8C431.452 125.8 434.823 123.837 437.127 119.912C439.431 115.901 440.583 109.373 440.583 100.328V92.648ZM464.97 67.688V64.104H488.778V74.728C491.253 70.7174 493.941 67.7307 496.842 65.768C499.743 63.8054 503.199 62.824 507.21 62.824C514.378 62.824 520.053 65.6827 524.234 71.4C528.501 77.032 530.634 84.968 530.634 95.208V97.768C530.634 107.667 528.202 115.56 523.338 121.448C518.474 127.336 511.733 130.28 503.114 130.28C497.994 130.28 493.471 129 489.546 126.44V145.512C489.546 148.413 489.674 150.12 489.93 150.632C490.186 151.229 490.997 151.613 492.362 151.784L501.962 152.68V156.264H464.97V152.68L472.01 151.784C473.375 151.613 474.186 151.229 474.442 150.632C474.698 150.12 474.826 148.413 474.826 145.512V74.856C474.826 71.9547 474.698 70.248 474.442 69.736C474.186 69.1387 473.375 68.7547 472.01 68.584L464.97 67.688ZM503.882 68.456C501.749 68.456 499.487 69.352 497.098 71.144C494.794 72.8507 492.277 76.392 489.546 81.768V120.424C492.789 123.667 496.757 125.288 501.45 125.288C506.229 125.288 509.642 123.197 511.69 119.016C513.823 114.749 514.89 108.947 514.89 101.608V91.368C514.89 83.432 513.909 77.6294 511.946 73.96C509.983 70.2907 507.295 68.456 503.882 68.456Z" fill="white"/>
<path d="M222.323 39.0527C222.046 39.0792 221.729 39.1336 221.384 39.2136C218.952 39.7902 217.032 41.613 216.324 44.02C215.903 45.453 215.954 47.0671 216.469 48.4236C216.803 49.3099 217.317 50.1339 217.939 50.785C218.98 51.8773 220.132 52.5151 221.622 52.829C222.123 52.9352 222.507 52.968 223.06 52.9549C223.656 52.9397 223.952 52.9109 224.351 52.8336C225.686 52.5741 226.872 51.9456 227.858 50.978C228.926 49.9312 229.559 48.7528 229.844 47.2838C229.999 46.4849 229.996 45.542 229.839 44.6943C229.727 44.1001 229.564 43.6066 229.286 43.0209C229.048 42.5175 228.901 42.268 228.599 41.858C228.304 41.4528 227.66 40.7899 227.296 40.5109C226.302 39.7473 225.261 39.2954 224.034 39.0981C223.751 39.0519 222.644 39.0218 222.323 39.0527ZM223.486 40.8892C225.096 41.0607 226.526 41.9606 227.366 43.3331C227.654 43.8016 227.929 44.4999 228.029 45.0118C228.152 45.6388 228.148 46.3824 228.017 47.036C227.906 47.5959 227.583 48.3563 227.251 48.8469C226.722 49.6225 226.064 50.1933 225.22 50.601C224.46 50.9671 223.946 51.086 223.025 51.1063C222.459 51.117 222.195 51.0896 221.722 50.9648C220.975 50.768 220.19 50.3505 219.653 49.8664C219.371 49.6114 219.038 49.2552 218.861 49.0173C218.412 48.4141 218.047 47.5253 217.935 46.767C217.887 46.45 217.901 45.3594 217.956 45.0783C218.271 43.4406 219.329 42.0653 220.82 41.3635C221.309 41.1342 221.899 40.9595 222.361 40.9083C222.483 40.895 222.614 40.8793 222.652 40.8749C222.811 40.8594 223.262 40.8668 223.486 40.8892Z" fill="white"/>
<path d="M222.295 41.2115C222.21 41.2415 222.201 41.2884 222.198 41.7363C222.196 42.0577 222.188 42.1796 222.167 42.1959C222.151 42.2099 222.042 42.2421 221.927 42.2695C221.308 42.4183 220.696 42.7993 220.362 43.2453C220.206 43.4532 220.064 43.7361 219.999 43.9656C219.935 44.2068 219.924 44.7885 219.981 45.0351C220.167 45.8103 220.792 46.3394 221.817 46.5918C221.99 46.6327 222.14 46.6806 222.15 46.6923C222.177 46.7324 222.165 47.9684 222.137 47.9847C222.102 48.0056 221.969 47.9157 221.862 47.7977C221.738 47.6633 221.662 47.5057 221.588 47.2379C221.554 47.118 221.512 47.0005 221.491 46.9769C221.459 46.9392 221.391 46.9364 220.68 46.9322C219.813 46.927 219.799 46.9293 219.798 47.0747C219.796 47.3679 219.959 47.9576 220.124 48.2612C220.483 48.9248 221.169 49.4778 221.9 49.6932C222.014 49.7267 222.117 49.7602 222.129 49.7697C222.141 49.7768 222.149 49.9903 222.147 50.2506C222.144 50.6869 222.147 50.7197 222.191 50.7646C222.235 50.8094 222.268 50.8119 222.976 50.8162C223.684 50.8204 223.717 50.8183 223.762 50.774C223.807 50.7297 223.809 50.6968 223.812 50.2864C223.813 50.0448 223.824 49.8361 223.833 49.8221C223.843 49.808 223.932 49.7781 224.033 49.7576C224.631 49.6275 225.123 49.3583 225.538 48.9339C225.847 48.6167 226.058 48.2708 226.163 47.9032C226.226 47.6854 226.23 46.9982 226.17 46.7774C226.069 46.4108 225.837 46.0506 225.543 45.8119C225.365 45.6654 224.905 45.4328 224.638 45.3514C224.43 45.2892 223.997 45.1928 223.917 45.1923C223.891 45.1922 223.863 45.1756 223.856 45.1544C223.831 45.0863 223.847 44.0003 223.875 43.9841C223.908 43.9608 224.074 44.0814 224.164 44.1969C224.262 44.3171 224.325 44.4465 224.364 44.6039C224.416 44.8177 224.374 44.808 225.256 44.8133L226.029 44.8179L226.074 44.7619C226.114 44.7129 226.119 44.6824 226.108 44.551C226.036 43.7882 225.715 43.2046 225.125 42.7625C224.807 42.5237 224.445 42.3643 223.937 42.237L223.836 42.2106L223.839 41.7649C223.842 41.324 223.842 41.3193 223.783 41.2626L223.727 41.2037L223.029 41.2018C222.644 41.1995 222.314 41.2046 222.295 41.2115ZM222.177 44.375C222.182 44.8254 222.174 44.877 222.106 44.8766C222.06 44.8763 221.919 44.8074 221.849 44.7531C221.67 44.6066 221.674 44.3017 221.86 44.1315C221.933 44.0663 222.119 43.9595 222.149 43.9691C222.163 43.9739 222.174 44.1358 222.177 44.375ZM224.204 47.0518C224.414 47.1609 224.509 47.2882 224.508 47.4617C224.507 47.6306 224.443 47.7498 224.295 47.8662C224.175 47.9617 223.94 48.0611 223.874 48.049C223.841 48.0418 223.837 47.9761 223.833 47.5257C223.832 47.2419 223.836 46.9956 223.843 46.9769C223.862 46.9278 224.028 46.9616 224.204 47.0518Z" fill="white"/>
</svg>
